<svg version="1.1" id="Layer_1" xmlns="http://www.w3.org/2000/svg" xmlns:xlink="http://www.w3.org/1999/xlink" x="0px" y="0px"
	 width="100%" viewBox="0 0 288 288" enable-background="new 0 0 288 288" xml:space="preserve">
<path fill="#000000" opacity="1.000000" stroke="none" 
	d="
M289.000000,249.531342 
	C286.465881,245.590134 287.437134,240.584885 286.832489,235.891693 
	C281.700348,196.056915 274.584076,156.649994 260.436707,118.911972 
	C252.016708,96.451744 239.945206,76.318001 219.549316,62.244820 
	C204.225327,51.671249 187.512817,46.203346 168.840607,47.079014 
	C163.360275,47.336025 157.843277,46.961956 152.416107,48.181709 
	C149.255112,48.892136 147.096878,47.776901 145.656311,44.652100 
	C141.756729,36.193356 137.617889,27.844923 133.414307,19.121473 
	C129.666168,21.407421 126.851738,24.531637 124.429207,27.701422 
	C117.374283,36.932491 108.049110,42.625225 97.326294,46.349098 
	C84.899506,50.664730 75.015045,57.805096 65.648422,67.521828 
	C55.348049,78.207207 50.157406,88.633965 50.946415,103.544250 
	C51.617657,116.229118 43.946625,126.885170 37.577900,137.448364 
	C30.703041,148.851028 22.508745,159.489548 17.263569,171.831543 
	C13.152665,181.504593 11.315945,191.340988 17.598696,200.914215 
	C21.832413,207.365280 28.254829,210.178802 35.656784,211.245773 
	C37.685490,211.538193 38.678349,210.393539 39.763111,209.049149 
	C42.063908,206.197632 44.384773,203.356613 46.822994,200.623306 
	C49.178902,197.982300 52.087791,196.755905 55.163895,199.221924 
	C58.258133,201.702469 58.276012,204.897018 56.151901,208.132446 
	C54.323090,210.918091 52.408833,213.649353 50.642784,216.473724 
	C49.805496,217.812744 48.413021,219.055191 49.270283,221.255249 
	C53.927723,222.077789 56.711327,218.961899 58.877357,215.788559 
	C62.908768,209.882324 66.932404,203.865356 70.023109,197.443893 
	C76.974983,183.000198 88.788345,173.996368 102.393303,166.692139 
	C116.040962,159.365005 129.794296,152.247742 142.649399,143.501114 
	C153.555756,136.080429 159.766190,126.509010 158.899704,112.958084 
	C158.752045,110.648834 158.801697,108.328400 159.378067,106.008636 
	C160.116943,103.034943 161.840698,101.147629 164.836288,101.069771 
	C167.961563,100.988548 170.305847,102.671684 171.144516,105.767593 
	C172.554840,110.973694 172.845520,116.277596 171.748978,121.593369 
	C169.650803,131.764893 165.558716,140.901932 157.861755,148.158859 
	C156.396561,149.540283 155.367249,150.931824 155.579880,153.330719 
	C158.212708,183.033051 149.561157,208.814560 128.591492,230.281540 
	C120.906982,238.148315 113.250145,246.047394 105.774628,254.111511 
	C98.750763,261.688446 94.907578,270.674591 94.223038,281.102264 
	C93.923409,285.666626 95.604233,286.744415 99.891777,286.734253 
	C148.890091,286.618134 197.889008,286.591278 246.887268,286.722687 
	C259.860321,286.757477 272.866211,285.881012 285.812866,287.549896 
	C286.593903,287.650574 287.436127,287.276550 288.624939,287.061707 
	C288.588348,287.626709 289.970978,289.114716 288.005646,289.011200 
	C286.844604,288.950073 285.677734,289.000000 284.513489,289.000000 
	C216.654770,289.000000 148.796036,289.000000 80.613052,288.615082 
	C80.413780,285.911896 80.561363,283.594604 80.660034,281.275238 
	C81.215027,268.229004 85.754440,256.716003 94.018478,246.653717 
	C101.104347,238.025970 109.278038,230.437759 117.232422,222.651581 
	C129.664749,210.482056 138.082657,196.114273 141.269653,178.943268 
	C142.361832,173.058853 143.727127,167.050232 141.904541,160.523804 
	C131.903214,165.956116 122.223358,171.035278 112.724167,176.432434 
	C105.689888,180.429077 98.315414,183.766220 92.319443,189.620712 
	C84.491280,197.264130 80.622810,207.256943 75.040459,216.224030 
	C71.418854,222.041504 67.657158,227.533371 61.806438,231.485168 
	C53.533195,237.073212 42.470089,236.341217 37.228859,228.909149 
	C34.968018,225.703247 32.151497,224.294083 28.726957,223.520233 
	C13.718950,220.128815 5.070718,210.383316 1.000000,196.000000 
	C1.000000,190.311966 1.000000,184.623917 1.093896,178.121246 
	C2.289062,174.187912 3.335392,171.048523 4.501143,167.954117 
	C9.461346,154.787567 17.492411,143.280930 25.300213,131.831680 
	C34.269848,118.678757 39.549374,105.020882 37.680687,88.965477 
	C36.947922,82.669739 39.554104,77.463310 43.188126,72.444084 
	C47.033226,67.133331 52.114582,63.085583 56.440216,58.286030 
	C61.146477,53.064144 66.834854,48.279293 63.726181,39.886356 
	C63.238445,38.569553 63.739723,36.912704 63.632915,35.423904 
	C63.207169,29.489344 63.016449,23.517088 62.179024,17.638515 
	C61.266907,11.235644 60.438053,5.121861 67.000000,1.000000 
	C67.444443,1.000000 67.888893,1.000000 68.859711,1.276446 
	C81.421051,8.451498 93.464386,15.335601 105.480217,22.267349 
	C106.955429,23.118374 108.369560,24.270239 109.919991,22.684082 
	C116.966347,15.475352 124.700073,8.933635 131.000000,1.000000 
	C133.370560,1.000000 135.741104,1.000000 138.693207,1.313135 
	C145.218918,10.518975 149.089691,20.450832 153.194321,30.220684 
	C154.972961,34.454239 157.282349,36.576988 161.728973,35.571297 
	C164.734863,34.891464 167.619431,35.771603 170.552444,35.628036 
	C186.081924,34.867912 200.493271,39.291447 214.057236,46.110973 
	C235.237305,56.759636 250.042557,74.073555 261.283844,94.506187 
	C272.149597,114.256195 278.418488,135.772949 284.377106,157.373276 
	C285.820953,162.607346 286.268951,168.145187 289.000000,173.000000 
	C289.000000,198.354233 289.000000,223.708450 289.000000,249.531342 
M76.472137,22.958866 
	C75.903275,28.739294 76.864876,34.355545 77.955254,40.470142 
	C83.762558,37.923553 89.347801,36.162251 95.171654,32.408134 
	C88.517555,28.518982 83.379158,24.176857 76.472137,22.958866 
z"/>
<path fill="#000000" opacity="1.000000" stroke="none" 
	d="
M78.846588,98.835342 
	C71.387222,105.938293 64.991096,109.487228 59.222687,109.675896 
	C59.593327,105.625427 62.260685,102.756592 64.152176,99.577034 
	C66.450203,95.714096 68.892090,91.928635 71.434937,88.221603 
	C74.245003,84.125008 78.207993,81.760056 83.224747,81.800560 
	C87.983963,81.838982 89.389511,84.210594 86.874893,88.206825 
	C84.580780,91.852623 81.706192,95.133148 78.846588,98.835342 
z"/>
<path fill="#000000" opacity="1.000000" stroke="none" 
	d="
M33.071365,186.783905 
	C28.439960,191.343170 23.437243,194.722031 17.244102,198.433014 
	C17.162630,190.009766 16.888702,182.662521 22.080591,176.550751 
	C25.005827,173.107239 28.753214,172.951675 32.269859,175.620758 
	C35.898716,178.375000 36.233486,181.846680 33.071365,186.783905 
z"/>
</svg>